<?xml version="1.0" standalone="no"?>
<!DOCTYPE svg PUBLIC "-//W3C//DTD SVG 20010904//EN"
 "http://www.w3.org/TR/2001/REC-SVG-20010904/DTD/svg10.dtd">
<svg version="1.0" xmlns="http://www.w3.org/2000/svg"
 width="512.000000pt" height="512.000000pt" viewBox="0 0 512.000000 512.000000"
 preserveAspectRatio="xMidYMid meet">
<metadata>
Created by potrace 1.11, written by Peter Selinger 2001-2013
</metadata>
<g transform="translate(0.000000,512.000000) scale(0.100000,-0.100000)"
fill="#000000" stroke="none">
<path d="M2439 4732 c-246 -65 -398 -321 -334 -565 24 -91 63 -157 134 -227
l67 -64 -415 -658 -414 -658 -146 140 c-80 76 -260 251 -400 387 l-255 249 33
48 c152 220 50 520 -202 597 -188 58 -386 -30 -470 -209 -29 -61 -32 -76 -32
-162 0 -86 3 -101 32 -162 64 -136 185 -216 341 -227 l86 -6 153 -745 c84
-410 167 -814 184 -897 l32 -153 1727 0 1727 0 42 203 c23 111 106 515 185
897 l143 695 85 6 c156 11 277 91 341 227 29 61 32 76 32 162 0 85 -3 102 -31
160 -86 182 -285 271 -472 211 -252 -81 -353 -377 -203 -594 17 -25 31 -49 30
-54 -1 -9 -783 -765 -793 -767 -3 -1 -192 294 -419 654 l-413 655 66 65 c72
70 111 136 135 227 76 290 -153 582 -455 582 -30 0 -85 -8 -121 -17z"/>
<path d="M875 1198 c-3 -7 -48 -191 -100 -408 -52 -217 -97 -401 -100 -407 -3
-10 378 -13 1884 -13 l1888 0 -101 418 -102 417 -1682 3 c-1341 2 -1684 0
-1687 -10z"/>
</g>
</svg>
